<?xml version="1.0" encoding="UTF-8"?>
<svg id="Layer_1" xmlns="http://www.w3.org/2000/svg" version="1.1" viewBox="0 0 224.3 226.1">
  <!-- Generator: Adobe Illustrator 30.0.0, SVG Export Plug-In . SVG Version: 2.1.1 Build 123)  -->
  <defs>
    <style>
      .st0 {
        fill: #6b2737;
      }

      .st1 {
        fill: #fff;
      }
    </style>
  </defs>
  <g>
    <rect class="st0" x="1.4" y="1" width="222.7" height="223.5" rx="53.6" ry="53.6"/>
    <path class="st1" d="M170.5,225H55c-29.8,0-54.1-24.3-54.1-54.1V54.6C.9,24.8,25.1.5,55,.5h115.5c29.8,0,54.1,24.3,54.1,54.1v116.2c0,29.8-24.3,54.1-54.1,54.1ZM55,1.5C25.7,1.5,1.9,25.3,1.9,54.6v116.2c0,29.3,23.8,53.1,53.1,53.1h115.5c29.3,0,53.1-23.8,53.1-53.1V54.6c0-29.3-23.8-53.1-53.1-53.1H55Z"/>
  </g>
  <g>
    <circle class="st1" cx="63.2" cy="55.6" r="16.5"/>
    <rect class="st1" x="48.7" y="84" width="28.2" height="89.9"/>
    <path class="st1" d="M153.1,174.5h28.1s1.9-41.6.7-55.8c-1.2-14.2-2-24.7-15.4-33.2-10.6-6.7-24.5-3.1-24.5-3.1,0,0-7.7,1.7-11.9,5s-7,6.3-7,6.3l-2,1.9.3-11.8h-27.7v90.6h28.3v-37.9s-.3-19.3,5.2-24.9c5.6-5.6,11-4.7,11-4.7,0,0,9.2.5,12.1,5.4,2.9,4.9,3.3,16.7,3.3,16.7,0,0-.5,45.3-.5,45.6Z"/>
  </g>
  <path class="st1" d="M150,108"/>
</svg>