<?xml version="1.0" encoding="UTF-8"?>
<svg id="Layer_1" xmlns="http://www.w3.org/2000/svg" version="1.1" viewBox="0 0 225 225">
  <!-- Generator: Adobe Illustrator 30.0.0, SVG Export Plug-In . SVG Version: 2.1.1 Build 123)  -->
  <defs>
    <style>
      .st0 {
        fill: #6b2737;
      }

      .st1 {
        stroke: #000;
        stroke-miterlimit: 10;
      }

      .st1, .st2 {
        fill: #fff;
      }
    </style>
  </defs>
  <g>
    <rect class="st0" x="1.4" y=".7" width="222.7" height="223.5" rx="53.6" ry="53.6"/>
    <path class="st2" d="M170.5,224.6H55c-29.8,0-54.1-24.3-54.1-54.1V54.3C.9,24.5,25.1.2,55,.2h115.5c29.8,0,54.1,24.3,54.1,54.1v116.2c0,29.8-24.3,54.1-54.1,54.1ZM55,1.2C25.7,1.2,1.9,25,1.9,54.3v116.2c0,29.3,23.8,53.1,53.1,53.1h115.5c29.3,0,53.1-23.8,53.1-53.1V54.3c0-29.3-23.8-53.1-53.1-53.1H55Z"/>
  </g>
  <rect class="st1" x="-68.8" y="162.3" width="1.1" height=".6" rx="-33.3" ry="-33.3"/>
  <g>
    <path class="st2" d="M42.7,64.5h138.9c.6,0,1,.8.5,1.2l-56.9,56.9c-6.5,6.5-17,6.6-23.7.2l-59.4-57.1c-.5-.4-.1-1.2.5-1.2Z"/>
    <path class="st2" d="M113.2,128.6c-4.5,0-9-1.7-12.4-5l-59.4-57.1c-.5-.5-.7-1.2-.4-1.9.3-.7.9-1.1,1.6-1.1h138.9c.7,0,1.3.4,1.6,1.1.3.6.1,1.4-.4,1.9l-56.9,56.9c-3.5,3.5-8.1,5.2-12.7,5.2ZM43.4,65.5l58.9,56.6c6.2,6,16.2,5.9,22.3-.2l56.4-56.4H43.4Z"/>
  </g>
  <g>
    <path class="st2" d="M38.6,70.1l41,40.1c1.4,1.4,1.5,3.7,0,5.2l-40,40.2c-.9.9-2.4.3-2.4-1l-.2-83.8c0-.8,1-1.2,1.5-.6Z"/>
    <path class="st2" d="M38.7,157c-.3,0-.6,0-.9-.2-.9-.4-1.5-1.2-1.5-2.2l-.2-83.8c0-.8.5-1.5,1.2-1.8.7-.3,1.5-.1,2.1.4h0l41,40.1c.9.9,1.4,2,1.4,3.3,0,1.2-.5,2.4-1.4,3.3l-40,40.2c-.5.5-1.1.7-1.7.7ZM38.1,71l.2,83.6c0,.2.1.3.2.4,0,0,.3,0,.4,0l40-40.2c.5-.5.8-1.2.8-1.9,0-.7-.3-1.4-.8-1.9l-40.8-39.9Z"/>
  </g>
  <g>
    <path class="st2" d="M187.5,70l-41,40.1c-1.4,1.4-1.5,3.7,0,5.2l40,40.2c.9.9,2.4.3,2.4-1l.2-83.8c0-.8-1-1.2-1.5-.6Z"/>
    <path class="st2" d="M187.4,156.8c-.6,0-1.2-.2-1.7-.7l-40-40.2c-.9-.9-1.4-2.1-1.4-3.3,0-1.2.5-2.4,1.4-3.3l41-40.1c.5-.5,1.4-.7,2.1-.4.7.3,1.2,1,1.2,1.8l-.2,83.8c0,1-.6,1.8-1.5,2.2-.3.1-.6.2-.9.2ZM188,70.9l-40.8,39.9c-.5.5-.8,1.2-.8,1.9,0,.7.3,1.4.8,1.9l40,40.2c.2.2.3.1.4,0,0,0,.2-.1.2-.4l.2-83.6Z"/>
  </g>
  <g>
    <path class="st2" d="M43.6,161.1h137.6c.9,0,1.3-1.1.7-1.7l-41-41.7c-.4-.4-1-.4-1.4,0l-8.3,8.3c-9.6,9.6-25.1,9.9-35.1.8l-10.2-9.3c-.4-.4-1-.3-1.4,0l-41.8,42c-.6.6-.2,1.7.7,1.7Z"/>
    <path class="st2" d="M181.3,162.1H43.6c-.8,0-1.5-.5-1.8-1.2-.3-.7-.1-1.6.4-2.2l41.8-42c.8-.8,2-.8,2.8,0l10.2,9.3c9.7,8.8,24.5,8.5,33.7-.7l8.3-8.3c.4-.4.9-.6,1.4-.6.5,0,1,.2,1.4.6l41,41.7c.6.6.7,1.4.4,2.2s-1,1.2-1.8,1.2ZM43.6,160.1h137.6l-41-41.7-8.3,8.3c-10,10-26,10.4-36.5.8l-10.2-9.3-41.8,41.9Z"/>
  </g>
</svg>