<?xml version="1.0" encoding="UTF-8"?>
<svg id="Layer_1" xmlns="http://www.w3.org/2000/svg" version="1.1" viewBox="0 0 225.1 225.1">
  <!-- Generator: Adobe Illustrator 30.0.0, SVG Export Plug-In . SVG Version: 2.1.1 Build 123)  -->
  <defs>
    <style>
      .st0 {
        fill: #6b2737;
      }

      .st1, .st2 {
        fill: #fff;
      }

      .st2 {
        stroke: #fff;
        stroke-miterlimit: 10;
      }
    </style>
  </defs>
  <g>
    <rect class="st0" x="1" y=".8" width="222.7" height="223.5" rx="53.6" ry="53.6"/>
    <path class="st1" d="M170.1,224.8H54.6c-29.8,0-54.1-24.3-54.1-54.1V54.4C.5,24.6,24.8.3,54.6.3h115.5c29.8,0,54.1,24.3,54.1,54.1v116.2c0,29.8-24.3,54.1-54.1,54.1ZM54.6,1.3C25.4,1.3,1.5,25.1,1.5,54.4v116.2c0,29.3,23.8,53.1,53.1,53.1h115.5c29.3,0,53.1-23.8,53.1-53.1V54.4c0-29.3-23.8-53.1-53.1-53.1H54.6Z"/>
  </g>
  <path class="st2" d="M45.8,44.3c4.5-5.6,11.2-11.8,19.2-14,3.7-1,8.2-1,11.9-.9,1.7,0,3.4,0,4.9.3.8.2,1.5.7,2.2,1.3,2.3,2.1,3.4,5.2,4.4,8.2,2.6,8,5.1,16.1,6.7,23.8.5,2.7,1.3,5.9,1.4,8.4,0,1.5-.2,3-.8,4.4-1,2.6-2.8,3.8-5.3,5-2,1.1-4.5,2-6.4,2.9-1.3.6-2.4,1.2-3.3,2.1-2,1.9-2,5-1.2,7.4,1.7,5.1,4.3,10.7,7.4,16.7,1.3,2.4,2.6,4.6,4.1,6.8,3.4,4.9,9,10.9,12.4,14.6,1.5,1.6,2.6,2.9,4.3,4.2,2.1,1.7,4.4,3.5,6.6,5.2,3.8,3,7.7,6.2,12.1,8,4,1.7,7.7-1.1,10-4.2,1.1-1.4,2.3-3.3,3.2-4.6.7-.9,1.4-1.9,2.3-2.7,2.7-2.3,6.7-2.7,9.9-1.6,1.2.4,2.4.9,3.6,1.4,4.9,2.1,9.8,4.1,14.6,6.3,2.2,1,4.6,2.1,6.8,3,2.9,1.3,5.1,2.5,7.5,4.5,2.7,2.3,4.6,4.4,4.4,8.2,0,2.1-.2,4.6-.7,6.7-.5,2.4-1.4,4.6-2.5,6.8-2.8,6.1-7.5,11.1-12.7,14.6-2.2,1.5-3.7,2.7-6.4,3.8-4.4,2-9.9,2.5-14.6,2.9-6,.5-12-.8-17.7-2.6-3.7-1.2-8.1-3.1-11.8-5.3-4.2-2.4-8.7-5.8-12.9-8.9-4.1-3.1-8.1-6.2-12-9.2-1.1-.8-2.1-1.9-3.3-3-3.9-4.1-11-11-15.3-15.6-4.1-5-9.7-11.7-13.7-16.8-3.8-5.6-9.5-14.6-13.7-21-1.2-1.7-1.9-3.5-2.8-5.4-1.5-3.3-3.4-6.9-4.8-10.3-.7-2-1.2-3.9-1.9-6-.8-2.7-1.6-5.5-2.4-8.2-1.1-3.6-1.5-6.1-1.7-9.9-.1-3,0-5.5.7-8.6,1.4-6.4,3.9-13,7-18.7h0Z"/>
</svg>